<?xml version="1.0" encoding="UTF-8" standalone="no"?>
<!DOCTYPE svg PUBLIC "-//W3C//DTD SVG 1.1//EN" "http://www.w3.org/Graphics/SVG/1.1/DTD/svg11.dtd">
<svg width="100%" height="100%" viewBox="0 0 256 256" version="1.1" xmlns="http://www.w3.org/2000/svg" xmlns:xlink="http://www.w3.org/1999/xlink" xml:space="preserve" xmlns:serif="http://www.serif.com/" style="fill-rule:evenodd;clip-rule:evenodd;stroke-linejoin:round;stroke-miterlimit:2;">
    <g id="eu" transform="matrix(1,0,0,1,-702,-1382)">
        <rect x="702" y="1382" width="256" height="256" style="fill:none;"/>
        <clipPath id="_clip1">
            <rect x="702" y="1382" width="256" height="256"/>
        </clipPath>
        <g clip-path="url(#_clip1)">
            <g transform="matrix(0.304849,0,0,0.304849,288.713,1026.01)">
                <path d="M2049,1441.17C2049,1625.8 1873.96,1690.37 1790.39,1923.75C1785.39,1937.62 1765.76,1937.63 1760.79,1923.75C1677.22,1690.37 1502.18,1625.8 1502.18,1441.17C1502.18,1290.17 1624.59,1167.76 1775.59,1167.76C1926.59,1167.76 2049,1290.17 2049,1441.17Z" style="fill:rgb(201,211,214);fill-rule:nonzero;"/>
                <path d="M1775.59,1167.76C1926.59,1167.76 2049,1290.17 2049,1441.17C2049,1625.8 1873.96,1690.37 1790.39,1923.75C1787.89,1930.68 1781.74,1934.15 1775.59,1934.16L1775.59,1167.76Z" style="fill:rgb(172,189,194);fill-rule:nonzero;"/>
                <path d="M1977.16,1441.17C1977.16,1552.5 1886.92,1642.75 1775.59,1642.75C1664.26,1642.75 1574.01,1552.5 1574.01,1441.17C1574.01,1329.85 1664.26,1239.6 1775.59,1239.6C1886.92,1239.6 1977.16,1329.85 1977.16,1441.17Z" style="fill:white;fill-rule:nonzero;"/>
                <path d="M1879.82,1441.17C1879.82,1498.74 1833.15,1545.41 1775.59,1545.41C1718.02,1545.41 1671.35,1498.74 1671.35,1441.17C1671.35,1383.61 1718.02,1336.94 1775.59,1336.94C1833.15,1336.94 1879.82,1383.61 1879.82,1441.17Z" style="fill:rgb(201,211,214);fill-rule:nonzero;"/>
                <path d="M1879.82,1441.17C1879.82,1498.74 1833.15,1545.41 1775.59,1545.41L1775.59,1336.94C1833.15,1336.94 1879.82,1383.61 1879.82,1441.17Z" style="fill:rgb(172,189,194);fill-rule:nonzero;"/>
                <path d="M1860.87,1986.85C1860.87,1998.27 1822.69,2007.52 1775.59,2007.52C1728.49,2007.52 1690.31,1998.27 1690.31,1986.85C1690.31,1975.43 1728.49,1966.17 1775.59,1966.17C1822.69,1966.17 1860.87,1975.43 1860.87,1986.85Z" style="fill:rgb(212,214,213);fill-rule:nonzero;"/>
            </g>
        </g>
    </g>
</svg>
